# xmcd
#
# Track frame offsets: 
#        150
#        20460
#        30787
#        50857
#        64055
#        78305
#        90487
#        110692
#        126765
#        144605
#        153440
#        160650
#        175220
#        186780
#        201750
#        217957
#        237230
#        244012
#        262550
#
# Disc length: 3636 seconds
#
# Revision: 4
# Processed by: cddbd v1.5.1PL2 Copyright (c) Steve Scherf et al.
# Submitted via: ExactAudioCopy v0.95a5
#
DISCID=f40e3213
DTITLE=Various Artist - O Brother, Where Art Thou
DYEAR=1900
DGENRE=Bluegrass
TTITLE0=Po Lazarus [James Carter and the Prisoners]
TTITLE1=Big Rock Candy Mountain [Harry McClintock]
TTITLE2=You Are My Sunshine [Norman Blake]
TTITLE3=Down to the River to Pray [ Alison Krauss]
TTITLE4=I am a Man of Constant Sorrow [Soggy Bottom Boys]
TTITLE5=Hard Time Killing Floor Blues [Chris Thomas King]
TTITLE6=I am a Man of Constant Sorrow [Norman Blake]
TTITLE7=Keep on the Sunny Side [The Whites]
TTITLE8=I'll Fly Away [Alison Krauss and Gillian Welch]
TTITLE9=Didn't Leave Nobody but the Baby [Emmylou Harris, Alison Kraus
TTITLE9=s and Gillian Welch]
TTITLE10=In the Highways [Sarah, Hannah and Leah Peasall]
TTITLE11=I am Weary (Let Me Rest) [The Cox Family]
TTITLE12=I am a Man of Constant Sorrow [John Hartford]
TTITLE13=O Death [Ralph Stanley]
TTITLE14=In the Jailhouse Now [The Soggy Bottom Boys]
TTITLE15=I am a Man of Constant Sorrow [The Soggy Bottom Boys]
TTITLE16=Indian War Whoop [John Hartford]
TTITLE17=Lonesome Valley [Fairfield Four]
TTITLE18=Angel Band [The Stanley Brothers]
EXTD=
EXTT0=
EXTT1=
EXTT2=
EXTT3=
EXTT4=
EXTT5=
EXTT6=
EXTT7=
EXTT8=
EXTT9=
EXTT10=
EXTT11=
EXTT12=
EXTT13=
EXTT14=
EXTT15=
EXTT16=
EXTT17=
EXTT18=
PLAYORDER=
